<svg xmlns="http://www.w3.org/2000/svg" width="288" height="188.943" viewBox="0 0 288 188.943"><g opacity=".1"><linearGradient id="a" gradientUnits="userSpaceOnUse" x1="-1379.353" y1="-792.346" x2="-1377.68" y2="-790.672" gradientTransform="matrix(36 0 0 14 49871.453 11222.52)"><stop offset="0" stop-color="#B3B3B3"/><stop offset="1" stop-color="#7D7D7D"/></linearGradient><path fill="url(#a)" d="M211.183 131.036l23.262 23.506L271 134.392"/><linearGradient id="b" gradientUnits="userSpaceOnUse" x1="-1371.946" y1="-797.054" x2="-1370.273" y2="-795.381" gradientTransform="matrix(22 0 0 16 30418.473 12886.468)"><stop offset="0" stop-color="#868686"/><stop offset="1" stop-color="#909090"/></linearGradient><path fill="url(#b)" d="M234.445 154.542l4.985 6.715L271 134.393"/><linearGradient id="c" gradientUnits="userSpaceOnUse" x1="-1356.874" y1="-807.661" x2="-1355.205" y2="-805.992" gradientTransform="matrix(11 0 0 23 15068.986 18688.273)"><stop offset="0" stop-color="#E5E5E5"/><stop offset="1" stop-color="#C8C8C8"/></linearGradient><path fill="url(#c)" d="M144.72 109.21l18.277 35.257-6.646 3.36"/><linearGradient id="d" gradientUnits="userSpaceOnUse" x1="-1343.355" y1="-800.712" x2="-1341.686" y2="-799.043" gradientTransform="matrix(8 0 0 18 10904.488 14554.415)"><stop offset="0" stop-color="#A7A7A7"/><stop offset="1" stop-color="#A8A8A8"/></linearGradient><path fill="url(#d)" d="M162.997 144.467l6.647 30.22-13.293-26.86"/><linearGradient id="e" gradientUnits="userSpaceOnUse" x1="-1377.919" y1="-776.302" x2="-1376.248" y2="-774.631" gradientTransform="matrix(26 0 0 10 35872.457 7900.636)"><stop offset="0" stop-color="#DEDEDE"/><stop offset="1" stop-color="#E3E3E3"/></linearGradient><path fill="url(#e)" d="M54.994 151.183l9.97-16.79 33.232 15.11"/><linearGradient id="f" gradientUnits="userSpaceOnUse" x1="-1378.404" y1="-815.434" x2="-1376.743" y2="-813.772" gradientTransform="matrix(31 0 0 35 42862.953 28698.94)"><stop offset="0" stop-color="#9E9E9E"/><stop offset="1" stop-color="#B6B6B6"/></linearGradient><path fill="url(#f)" d="M158.76 188.944l10.884-14.256-33.64 14.256"/><linearGradient id="g" gradientUnits="userSpaceOnUse" x1="-1378.685" y1="-788.098" x2="-1377.006" y2="-786.42" gradientTransform="matrix(31 0 0 13 42862.953 10417.548)"><stop offset="0" stop-color="#A3A3A3"/><stop offset="1" stop-color="#A7A7A7"/></linearGradient><path fill="url(#g)" d="M136.004 188.944l33.64-14.256H133.09l-9.768 14.256"/><linearGradient id="h" gradientUnits="userSpaceOnUse" x1="-1381.363" y1="-817.754" x2="-1379.7" y2="-816.091" gradientTransform="matrix(35 0 0 41 48351.953 33670.75)"><stop offset="0" stop-color="#949494"/><stop offset="1" stop-color="#BFBFBF"/></linearGradient><path fill="url(#h)" d="M34.03 188.944l20.964-37.76L0 182.935v6.008"/><linearGradient id="i" gradientUnits="userSpaceOnUse" x1="-1378.891" y1="-808.702" x2="-1377.218" y2="-807.03" gradientTransform="matrix(26 0 0 24 35821.457 19521.24)"><stop offset="0" stop-color="#BABABA"/><stop offset="1" stop-color="#929292"/></linearGradient><path fill="url(#i)" d="M0 132.47v14.64l13.455 5.753"/><linearGradient id="j" gradientUnits="userSpaceOnUse" x1="-1381.537" y1="-803.502" x2="-1379.851" y2="-801.817" gradientTransform="matrix(35 0 0 20 48351.953 16220.346)"><stop offset="0" stop-color="#929292"/><stop offset="1" stop-color="#AFAFAF"/></linearGradient><path fill="url(#j)" d="M0 182.936l54.994-31.753-41.54 1.68-13.453 25.83"/><linearGradient id="k" gradientUnits="userSpaceOnUse" x1="-1373.542" y1="-809.994" x2="-1371.855" y2="-808.308" gradientTransform="matrix(22 0 0 24 30367.473 19475.24)"><stop offset="0" stop-color="#F6F6F6"/><stop offset="1" stop-color="#F5F5F5"/></linearGradient><path opacity=".7" fill="url(#k)" d="M154.688 48.766l31.572-13.43-36.556 40.295"/><linearGradient id="l" gradientUnits="userSpaceOnUse" x1="-1377.84" y1="-811.974" x2="-1376.175" y2="-810.31" gradientTransform="matrix(28 0 0 28 38679.453 22843.133)"><stop offset="0" stop-color="#D0D0D0"/><stop offset="1" stop-color="#CBCBCB"/></linearGradient><path fill="url(#l)" d="M98.196 149.503l46.525-40.294-8.308 47.01"/><linearGradient id="m" gradientUnits="userSpaceOnUse" x1="-1374.217" y1="-780.38" x2="-1372.547" y2="-778.71" gradientTransform="matrix(22 0 0 11 30357.473 8744.608)"><stop offset="0" stop-color="#B3B3B3"/><stop offset="1" stop-color="#B4B4B4"/></linearGradient><path fill="url(#m)" d="M133.09 174.688h36.554l-33.232-18.467"/><linearGradient id="n" gradientUnits="userSpaceOnUse" x1="-1360.087" y1="-811.681" x2="-1358.415" y2="-810.009" gradientTransform="matrix(12 0 0 28 16454.48 22843.133)"><stop offset="0" stop-color="#E0E0E0"/><stop offset="1" stop-color="#C4C4C4"/></linearGradient><path fill="url(#n)" d="M144.72 109.21l11.63 38.616-19.938 8.395"/><linearGradient id="o" gradientUnits="userSpaceOnUse" x1="-1371.983" y1="-796.782" x2="-1370.315" y2="-795.114" gradientTransform="matrix(20 0 0 16 27578.475 12894.468)"><stop offset="0" stop-color="#A1A1A1"/><stop offset="1" stop-color="#A5A5A5"/></linearGradient><path fill="url(#o)" d="M156.35 147.826l13.294 26.862-33.232-18.467"/><linearGradient id="p" gradientUnits="userSpaceOnUse" x1="-1379.712" y1="-800.526" x2="-1378.048" y2="-798.862" gradientTransform="matrix(35 0 0 18 48451.953 14554.415)"><stop offset="0" stop-color="#AEAEAE"/><stop offset="1" stop-color="#A8A8A8"/></linearGradient><path fill="url(#p)" d="M162.997 144.467l6.647 30.22 51.508-25.184"/><linearGradient id="q" gradientUnits="userSpaceOnUse" x1="-1379.64" y1="-781.721" x2="-1377.975" y2="-780.056" gradientTransform="matrix(35 0 0 11 48451.953 8729.608)"><stop offset="0" stop-color="#B6B6B6"/><stop offset="1" stop-color="#BBB"/></linearGradient><path fill="url(#q)" d="M162.997 144.467l48.186-13.43 9.97 18.466"/><linearGradient id="r" gradientUnits="userSpaceOnUse" x1="-1362.244" y1="-792.097" x2="-1360.573" y2="-790.427" gradientTransform="matrix(14 0 0 14 19280.477 11222.52)"><stop offset="0" stop-color="#C0C0C0"/><stop offset="1" stop-color="#959595"/></linearGradient><path fill="url(#r)" d="M211.183 131.036l23.262 23.506-13.293-5.04"/><linearGradient id="s" gradientUnits="userSpaceOnUse" x1="-1353.867" y1="-752.578" x2="-1352.197" y2="-750.907" gradientTransform="matrix(11 0 0 7 15114.986 5416.72)"><stop offset="0" stop-color="#6A6A6A"/><stop offset="1" stop-color="#8C8C8C"/></linearGradient><path fill="url(#s)" d="M234.445 154.542l4.985 6.715-18.278-11.754"/><linearGradient id="t" gradientUnits="userSpaceOnUse" x1="-1377.768" y1="-752.93" x2="-1376.09" y2="-751.252" gradientTransform="matrix(25 0 0 7 34456.957 5411.72)"><stop offset="0" stop-color="#CCC"/><stop offset="1" stop-color="#DADADA"/></linearGradient><path fill="url(#t)" d="M13.455 152.863l41.54-1.68-1.66-10.073"/><linearGradient id="u" gradientUnits="userSpaceOnUse" x1="-1360.525" y1="-816.251" x2="-1358.856" y2="-814.582" gradientTransform="matrix(11 0 0 36 15009.986 29473.922)"><stop offset="0" stop-color="#F2F2F2"/><stop offset="1" stop-color="#ECECEC"/></linearGradient><path fill="url(#u)" d="M46.686 80.667l18.278 53.726-11.63 6.717"/><linearGradient id="v" gradientUnits="userSpaceOnUse" x1="-1342.608" y1="-776.677" x2="-1340.934" y2="-775.003" gradientTransform="matrix(7 0 0 10 9451.988 7900.636)"><stop offset="0" stop-color="#DFDFDF"/><stop offset="1" stop-color="#E7E7E7"/></linearGradient><path fill="url(#v)" d="M54.994 151.183l9.97-16.79-11.63 6.717"/><linearGradient id="w" gradientUnits="userSpaceOnUse" x1="-1382.925" y1="-808.559" x2="-1381.256" y2="-806.89" gradientTransform="matrix(40 0 0 24 55298.45 19521.24)"><stop offset="0" stop-color="#9C9C9C"/><stop offset="1" stop-color="#D5D5D5"/></linearGradient><path fill="url(#w)" d="M0 118.208v14.263l13.455 20.393 39.88-11.753"/><linearGradient id="x" gradientUnits="userSpaceOnUse" x1="-1382.593" y1="-816.673" x2="-1380.924" y2="-815.004" gradientTransform="matrix(40 0 0 36 55298.45 29473.922)"><stop offset="0" stop-color="#F1F1F1"/><stop offset="1" stop-color="#F4F4F4"/></linearGradient><path fill="url(#x)" d="M0 118.208l53.334 22.902-6.648-60.443L0 105.564"/><linearGradient id="y" gradientUnits="userSpaceOnUse" x1="-1382.582" y1="-817.661" x2="-1380.911" y2="-815.989" gradientTransform="matrix(41 0 0 41 56706.95 33670.75)"><stop offset="0" stop-color="#828282"/><stop offset="1" stop-color="#BABABA"/></linearGradient><path fill="url(#y)" d="M83.022 188.944l-28.028-37.76-20.963 37.76"/><linearGradient id="z" gradientUnits="userSpaceOnUse" x1="-1377.304" y1="-809.278" x2="-1375.633" y2="-807.606" gradientTransform="matrix(26 0 0 25 35872.457 20374.207)"><stop offset="0" stop-color="#CCC"/><stop offset="1" stop-color="#C6C6C6"/></linearGradient><path fill="url(#z)" d="M85.706 188.944l12.49-39.44-43.202 1.68 28.028 37.76"/><linearGradient id="A" gradientUnits="userSpaceOnUse" x1="-1371.128" y1="-799.452" x2="-1369.459" y2="-797.783" gradientTransform="matrix(19 0 0 16 26179.975 12835.468)"><stop offset="0" stop-color="#F2F2F2"/><stop offset="1" stop-color="#F5F5F5"/></linearGradient><path opacity=".7" fill="url(#A)" d="M149.704 75.63l4.984-26.864-31.57 8.396"/><linearGradient id="B" gradientUnits="userSpaceOnUse" x1="-1369.092" y1="-801.705" x2="-1367.42" y2="-800.033" gradientTransform="matrix(18 0 0 17 24827.477 13646.434)"><stop offset="0" stop-color="#F8F8F8"/><stop offset="1" stop-color="#F4F4F4"/></linearGradient><path opacity=".7" fill="url(#B)" d="M186.26 35.336l29.908 8.394-18.277-28.542"/><linearGradient id="C" gradientUnits="userSpaceOnUse" x1="-1375.983" y1="-812.753" x2="-1374.319" y2="-811.089" gradientTransform="matrix(29 0 0 31 40180.953 25374.047)"><stop offset="0" stop-color="#969696"/><stop offset="1" stop-color="#6A6A6A"/></linearGradient><path fill="url(#C)" d="M288 188.944v-1.612l-3.51 1.612"/><linearGradient id="D" gradientUnits="userSpaceOnUse" x1="-1383.562" y1="-819.908" x2="-1381.891" y2="-818.238" gradientTransform="matrix(58 0 0 49 80498.344 40282.63)"><stop offset="0" stop-color="#969696"/><stop offset="1" stop-color="#6A6A6A"/></linearGradient><path fill="url(#D)" d="M288 126.693l-17 7.7 17 13.625"/><linearGradient id="E" gradientUnits="userSpaceOnUse" x1="-1374.787" y1="-807.857" x2="-1373.12" y2="-806.189" gradientTransform="matrix(26 0 0 24 35983.457 19550.24)"><stop offset="0" stop-color="#707070"/><stop offset="1" stop-color="#373737"/></linearGradient><path fill="url(#E)" d="M270.196 188.944l12.435-7.54-43.2-20.147 6.85 27.687"/><linearGradient id="F" gradientUnits="userSpaceOnUse" x1="-1374.703" y1="-811.623" x2="-1373.036" y2="-809.956" gradientTransform="matrix(26 0 0 28 35983.457 22858.133)"><stop offset="0" stop-color="#969696"/><stop offset="1" stop-color="#6A6A6A"/></linearGradient><path fill="url(#F)" d="M239.43 161.257L271 134.393l11.63 47.012"/><linearGradient id="G" gradientUnits="userSpaceOnUse" x1="-1369.347" y1="-784.627" x2="-1367.665" y2="-782.945" gradientTransform="matrix(20 0 0 12 27646.475 9590.574)"><stop offset="0" stop-color="#969696"/><stop offset="1" stop-color="#6A6A6A"/></linearGradient><path fill="url(#G)" d="M282.63 188.944v-7.54l-12.434 7.54"/><linearGradient id="H" gradientUnits="userSpaceOnUse" x1="-1376.257" y1="-811.266" x2="-1374.583" y2="-809.592" gradientTransform="matrix(29 0 0 28 40173.953 22858.133)"><stop offset="0" stop-color="#969696"/><stop offset="1" stop-color="#6A6A6A"/></linearGradient><path fill="url(#H)" d="M288 148.018l-17-13.625 11.63 47.012 5.37-1.234"/><linearGradient id="I" gradientUnits="userSpaceOnUse" x1="-1371.645" y1="-774.545" x2="-1369.968" y2="-772.869" gradientTransform="matrix(22 0 0 10 30447.473 7923.636)"><stop offset="0" stop-color="#969696"/><stop offset="1" stop-color="#6A6A6A"/></linearGradient><path fill="url(#I)" d="M284.49 188.944l3.51-1.612v-7.16l-5.37 1.233v7.54"/><linearGradient id="J" gradientUnits="userSpaceOnUse" x1="-1384.253" y1="-814.645" x2="-1382.588" y2="-812.98" gradientTransform="matrix(53 0 0 32 73410.914 26150.027)"><stop offset="0" stop-color="#EFEFEF"/><stop offset="1" stop-color="#E6E6E6"/></linearGradient><path fill="url(#J)" d="M46.686 80.667l18.278 53.726L134.75 94.1"/><linearGradient id="K" gradientUnits="userSpaceOnUse" x1="-1384.416" y1="-811.94" x2="-1382.745" y2="-810.269" gradientTransform="matrix(53 0 0 27 73410.914 21976.168)"><stop offset="0" stop-color="#F3F3F3"/><stop offset="1" stop-color="#EFEFEF"/></linearGradient><path opacity=".7" fill="url(#K)" d="M46.686 80.667l23.263-31.9 64.8 45.332"/><linearGradient id="L" gradientUnits="userSpaceOnUse" x1="-1382.302" y1="-815.102" x2="-1380.634" y2="-813.434" gradientTransform="matrix(42 0 0 33 58126.45 26988.992)"><stop offset="0" stop-color="#EAEAEA"/><stop offset="1" stop-color="#DCDCDC"/></linearGradient><path fill="url(#L)" d="M64.964 134.393l33.232 15.11L134.75 94.1"/><linearGradient id="M" gradientUnits="userSpaceOnUse" x1="-1381.485" y1="-812.385" x2="-1379.816" y2="-810.715" gradientTransform="matrix(39 0 0 27 53957.95 21976.168)"><stop offset="0" stop-color="#FAFAFA"/><stop offset="1" stop-color="#EBEBEB"/></linearGradient><path opacity=".7" fill="url(#M)" d="M69.95 48.766l53.168 8.396L134.75 94.1"/><linearGradient id="N" gradientUnits="userSpaceOnUse" x1="-1377.999" y1="-814.906" x2="-1376.328" y2="-813.235" gradientTransform="matrix(28 0 0 33 38679.453 26988.992)"><stop offset="0" stop-color="#DDD"/><stop offset="1" stop-color="#DDD"/></linearGradient><path fill="url(#N)" d="M98.196 149.503l46.525-40.294-9.97-15.11"/><linearGradient id="O" gradientUnits="userSpaceOnUse" x1="-1367.868" y1="-807.655" x2="-1366.201" y2="-805.989" gradientTransform="matrix(16 0 0 22 22008.477 17826.293)"><stop offset="0" stop-color="#F4F4F4"/><stop offset="1" stop-color="#E8E8E8"/></linearGradient><path opacity=".7" fill="url(#O)" d="M123.118 57.162l26.586 18.47-14.954 18.467"/><linearGradient id="P" gradientUnits="userSpaceOnUse" x1="-1370.253" y1="-808.803" x2="-1368.581" y2="-807.131" gradientTransform="matrix(17 0 0 25 23375.977 20374.207)"><stop offset="0" stop-color="#BFBFBF"/><stop offset="1" stop-color="#BFBFBF"/></linearGradient><path fill="url(#P)" d="M92.012 188.944l21.138-7.54-14.954-31.9-12.49 39.44"/><linearGradient id="Q" gradientUnits="userSpaceOnUse" x1="-1372.891" y1="-768.699" x2="-1371.231" y2="-767.04" gradientTransform="matrix(20 0 0 9 27547.475 7097.662)"><stop offset="0" stop-color="#AFAFAF"/><stop offset="1" stop-color="#A9A9A9"/></linearGradient><path fill="url(#Q)" d="M115.638 188.944l-2.488-7.54-21.138 7.54"/><linearGradient id="R" gradientUnits="userSpaceOnUse" x1="-1375.094" y1="-802.116" x2="-1373.42" y2="-800.442" gradientTransform="matrix(23 0 0 19 31726.957 15388.38)"><stop offset="0" stop-color="#C1C1C1"/><stop offset="1" stop-color="#ADADAD"/></linearGradient><path fill="url(#R)" d="M98.196 149.503l38.216 6.718-23.262 25.185"/><linearGradient id="S" gradientUnits="userSpaceOnUse" x1="-1360.416" y1="-788.103" x2="-1358.746" y2="-786.433" gradientTransform="matrix(12 0 0 13 16440.48 10417.548)"><stop offset="0" stop-color="#BCBCBC"/><stop offset="1" stop-color="#B2B2B2"/></linearGradient><path fill="url(#S)" d="M123.322 188.944l9.768-14.256-19.94 6.717 2.488 7.54"/><linearGradient id="T" gradientUnits="userSpaceOnUse" x1="-1364.897" y1="-794.158" x2="-1363.213" y2="-792.475" gradientTransform="matrix(14 0 0 15 19221.477 12068.494)"><stop offset="0" stop-color="#AAA"/><stop offset="1" stop-color="#AAA"/></linearGradient><path fill="url(#T)" d="M133.09 174.688l3.322-18.467-23.262 25.185"/><linearGradient id="U" gradientUnits="userSpaceOnUse" x1="-1362.499" y1="-767.544" x2="-1360.837" y2="-765.881" gradientTransform="matrix(15 0 0 8 20709.977 6182.69)"><stop offset="0" stop-color="#E8E8E8"/><stop offset="1" stop-color="#EFEFEF"/></linearGradient><path opacity=".7" fill="url(#U)" d="M288 44.375l-12.015 6.07L288 52.066"/><linearGradient id="V" gradientUnits="userSpaceOnUse" x1="-1378.843" y1="-797.053" x2="-1377.175" y2="-795.384" gradientTransform="matrix(26 0 0 16 35821.457 12886.468)"><stop offset="0" stop-color="#B3B3B3"/><stop offset="1" stop-color="#A8A8A8"/></linearGradient><path fill="url(#V)" d="M0 147.11v10.607l13.455-4.854"/><linearGradient id="W" gradientUnits="userSpaceOnUse" x1="-1368.132" y1="-802.231" x2="-1366.451" y2="-800.55" gradientTransform="matrix(14 0 0 19 19147.477 15390.38)"><stop offset="0" stop-color="#B1B1B1"/><stop offset="1" stop-color="#B2B2B2"/></linearGradient><path fill="url(#W)" d="M0 157.717v20.975l13.455-25.83"/><linearGradient id="X" gradientUnits="userSpaceOnUse" x1="-1355.566" y1="-810.061" x2="-1353.895" y2="-808.389" gradientTransform="matrix(12 0 0 24 16538.48 19460.24)"><stop offset="0" stop-color="#DFDFDF"/><stop offset="1" stop-color="#EEE"/></linearGradient><path opacity=".7" fill="url(#X)" d="M288 28.365l-12.015-18.213v40.294L288 44.376"/><linearGradient id="Y" gradientUnits="userSpaceOnUse" x1="-1377.803" y1="-803.433" x2="-1376.129" y2="-801.759" gradientTransform="matrix(33 0 0 18 45738.953 14474.415)"><stop offset="0" stop-color="#F0F0F0"/><stop offset="1" stop-color="#F2F2F2"/></linearGradient><path opacity=".7" fill="url(#Y)" d="M288 14.935l-12.015-4.783L288 28.365"/><linearGradient id="Z" gradientUnits="userSpaceOnUse" x1="-1365.692" y1="-805.257" x2="-1364.021" y2="-803.585" gradientTransform="matrix(16 0 0 19 22053.477 15306.38)"><stop offset="0" stop-color="#F6F6F6"/><stop offset="1" stop-color="#F0F0F0"/></linearGradient><path opacity=".7" fill="url(#Z)" d="M197.89 15.188L216.17 43.73l8.31-31.9"/><linearGradient id="aa" gradientUnits="userSpaceOnUse" x1="-1365.809" y1="-804.686" x2="-1364.139" y2="-803.016" gradientTransform="matrix(16 0 0 19 22064.477 15306.38)"><stop offset="0" stop-color="#EFEFEF"/><stop offset="1" stop-color="#EEE"/></linearGradient><path opacity=".7" fill="url(#aa)" d="M216.168 43.73l8.31-31.9 18.274 21.827"/><linearGradient id="ab" gradientUnits="userSpaceOnUse" x1="-1377.355" y1="-795.883" x2="-1375.681" y2="-794.208" gradientTransform="matrix(31 0 0 14 42926.953 11150.52)"><stop offset="0" stop-color="#EFEFEF"/><stop offset="1" stop-color="#ECECEC"/></linearGradient><path opacity=".7" fill="url(#ab)" d="M224.477 11.83l51.508-1.678-33.233 23.505"/><linearGradient id="ac" gradientUnits="userSpaceOnUse" x1="-1369.811" y1="-810.587" x2="-1368.144" y2="-808.92" gradientTransform="matrix(20 0 0 24 27642.475 19460.24)"><stop offset="0" stop-color="#D6D6D6"/><stop offset="1" stop-color="#E1E1E1"/></linearGradient><path opacity=".7" fill="url(#ac)" d="M275.985 50.446V10.152l-33.233 23.505"/><linearGradient id="ad" gradientUnits="userSpaceOnUse" x1="-1382.455" y1="-815.301" x2="-1380.783" y2="-813.628" gradientTransform="matrix(47 0 0 35 65114.914 28698.94)"><stop offset="0" stop-color="#777"/><stop offset="1" stop-color="#8D8D8D"/></linearGradient><path fill="url(#ad)" d="M181.4 188.944l-11.756-14.256-10.884 14.256"/><linearGradient id="ae" gradientUnits="userSpaceOnUse" x1="-1377.947" y1="-817.132" x2="-1376.281" y2="-815.466" gradientTransform="matrix(31 0 0 39 42893.953 32007.816)"><stop offset="0" stop-color="#969696"/><stop offset="1" stop-color="#8C8C8C"/></linearGradient><path fill="url(#ae)" d="M210.145 188.944l11.007-39.44-51.508 25.184 11.756 14.256"/><linearGradient id="af" gradientUnits="userSpaceOnUse" x1="-1372.403" y1="-817.051" x2="-1370.737" y2="-815.384" gradientTransform="matrix(22 0 0 39 30399.473 32007.816)"><stop offset="0" stop-color="#8A8A8A"/><stop offset="1" stop-color="#7E7E7E"/></linearGradient><path fill="url(#af)" d="M220.592 188.944l18.838-27.687-18.278-11.754-11.007 39.44"/><linearGradient id="ag" gradientUnits="userSpaceOnUse" x1="-1376.152" y1="-813.924" x2="-1374.474" y2="-812.246" gradientTransform="matrix(28 0 0 32 38742.453 26198.027)"><stop offset="0" stop-color="#919191"/><stop offset="1" stop-color="#747474"/></linearGradient><path fill="url(#ag)" d="M246.28 188.944l-6.85-27.687-18.838 27.687"/><linearGradient id="ah" gradientUnits="userSpaceOnUse" x1="-1364.092" y1="-783.343" x2="-1362.418" y2="-781.669" gradientTransform="matrix(14 0 0 11 19234.477 8705.608)"><stop offset="0" stop-color="#DBDBDB"/><stop offset="1" stop-color="#DDD"/></linearGradient><path fill="url(#ah)" d="M134.75 94.1l9.97 15.11 13.293-18.47"/><linearGradient id="ai" gradientUnits="userSpaceOnUse" x1="-1364.421" y1="-783.575" x2="-1362.748" y2="-781.903" gradientTransform="matrix(14 0 0 11 19234.477 8696.608)"><stop offset="0" stop-color="#DCDCDC"/><stop offset="1" stop-color="#E4E4E4"/></linearGradient><path opacity=".7" fill="url(#ai)" d="M134.75 94.1l14.954-18.47 8.31 15.11"/><linearGradient id="aj" gradientUnits="userSpaceOnUse" x1="-1356.592" y1="-814.696" x2="-1354.923" y2="-813.027" gradientTransform="matrix(11 0 0 32 15068.986 26156.027)"><stop offset="0" stop-color="#D4D4D4"/><stop offset="1" stop-color="#C9C9C9"/></linearGradient><path fill="url(#aj)" d="M144.72 109.21l18.277 35.257-4.984-53.726"/><linearGradient id="ak" gradientUnits="userSpaceOnUse" x1="-1373.441" y1="-815.804" x2="-1371.77" y2="-814.133" gradientTransform="matrix(22 0 0 33 30367.473 26953.992)"><stop offset="0" stop-color="#EAEAEA"/><stop offset="1" stop-color="#E7E7E7"/></linearGradient><path opacity=".7" fill="url(#ak)" d="M149.704 75.63l36.556-40.294-28.247 55.405"/><linearGradient id="al" gradientUnits="userSpaceOnUse" x1="-1379.012" y1="-814.259" x2="-1377.343" y2="-812.59" gradientTransform="matrix(32 0 0 32 44277.453 26156.027)"><stop offset="0" stop-color="#D2D2D2"/><stop offset="1" stop-color="#DEDEDE"/></linearGradient><path fill="url(#al)" d="M162.997 144.467l48.186-13.43-53.17-40.296"/><linearGradient id="am" gradientUnits="userSpaceOnUse" x1="-1379.81" y1="-815.65" x2="-1378.145" y2="-813.984" gradientTransform="matrix(35 0 0 33 48448.953 26953.992)"><stop offset="0" stop-color="#F6F6F6"/><stop offset="1" stop-color="#E9E9E9"/></linearGradient><path opacity=".7" fill="url(#am)" d="M186.26 35.336l29.908 8.394-58.155 47.01"/><linearGradient id="an" gradientUnits="userSpaceOnUse" x1="-1379.55" y1="-821.414" x2="-1377.883" y2="-819.747" gradientTransform="matrix(35 0 0 52 48448.953 42747.56)"><stop offset="0" stop-color="#D2D2D2"/><stop offset="1" stop-color="#DCDCDC"/></linearGradient><path opacity=".7" fill="url(#an)" d="M211.183 131.036l4.985-87.306-58.155 47.01"/><path opacity=".7" fill="none" d="M46.686 80.667l23.263-31.9-31.57 18.47"/><linearGradient id="ao" gradientUnits="userSpaceOnUse" x1="-1376.379" y1="-821.141" x2="-1374.715" y2="-819.477" gradientTransform="matrix(28 0 0 52 38747.453 42747.56)"><stop offset="0" stop-color="#DFDFDF"/><stop offset="1" stop-color="#E8E8E8"/></linearGradient><path opacity=".7" fill="url(#ao)" d="M211.183 131.036l4.985-87.306 41.54 16.79"/><linearGradient id="ap" gradientUnits="userSpaceOnUse" x1="-1379.533" y1="-819.227" x2="-1377.859" y2="-817.553" gradientTransform="matrix(36 0 0 44 49871.453 36109.738)"><stop offset="0" stop-color="#DFDFDF"/><stop offset="1" stop-color="#C6C6C6"/></linearGradient><path opacity=".7" fill="url(#ap)" d="M211.183 131.036L271 134.393 257.708 60.52"/><linearGradient id="aq" gradientUnits="userSpaceOnUse" x1="-1374.401" y1="-799.658" x2="-1372.733" y2="-797.989" gradientTransform="matrix(25 0 0 16 34578.957 12826.468)"><stop offset="0" stop-color="#D8D8D8"/><stop offset="1" stop-color="#DADADA"/></linearGradient><path opacity=".7" fill="url(#aq)" d="M216.168 43.73l26.584-10.073 14.956 26.863"/><linearGradient id="ar" gradientUnits="userSpaceOnUse" x1="-1370.066" y1="-799.471" x2="-1368.398" y2="-797.803" gradientTransform="matrix(20 0 0 16 27642.475 12826.468)"><stop offset="0" stop-color="#CDCDCD"/><stop offset="1" stop-color="#D4D4D4"/></linearGradient><path opacity=".7" fill="url(#ar)" d="M242.752 33.657l33.233 16.79-18.277 10.073"/><linearGradient id="as" gradientUnits="userSpaceOnUse" x1="-1374.502" y1="-820.319" x2="-1372.826" y2="-818.643" gradientTransform="matrix(26 0 0 48 35994.457 39429.664)"><stop offset="0" stop-color="#A6A6A6"/><stop offset="1" stop-color="#DDD"/></linearGradient><path opacity=".7" fill="url(#as)" d="M288 55.81l-30.292 4.71L271 134.393l17-45.81"/><linearGradient id="at" gradientUnits="userSpaceOnUse" x1="-1374.688" y1="-745.857" x2="-1373.015" y2="-744.184" gradientTransform="matrix(26 0 0 6 35994.457 4526.75)"><stop offset="0" stop-color="#E1E1E1"/><stop offset="1" stop-color="#E5E5E5"/></linearGradient><path opacity=".7" fill="url(#at)" d="M288 52.065l-12.015-1.62-18.277 10.075L288 55.81"/><linearGradient id="au" gradientUnits="userSpaceOnUse" x1="-1380.718" y1="-819.836" x2="-1379.04" y2="-818.157" gradientTransform="matrix(41 0 0 48 56859.95 39429.664)"><stop offset="0" stop-color="#ABABAB"/><stop offset="1" stop-color="#BFBFBF"/></linearGradient><path fill="url(#au)" d="M288 88.583l-17 45.81 17-17.598"/><linearGradient id="av" gradientUnits="userSpaceOnUse" x1="-1383.893" y1="-818.051" x2="-1382.214" y2="-816.371" gradientTransform="matrix(58 0 0 42 80498.344 34449.746)"><stop offset="0" stop-color="#969696"/><stop offset="1" stop-color="#6A6A6A"/></linearGradient><path fill="url(#av)" d="M288 116.795l-17 17.598 17-7.7"/></g></svg>
