<svg xmlns="http://www.w3.org/2000/svg" width="1920" height="1080"><path d="M-294,-570L359,-544L631,-581Z" fill="#e7f6bb" stroke="#e7f6bb" stroke-width="1.51"/><path d="M741,1551L-190,1624L1467,1595Z" fill="#56945a" stroke="#56945a" stroke-width="1.51"/><path d="M631,-581L1129,-324L1667,-316Z" fill="#afdb95" stroke="#afdb95" stroke-width="1.51"/><path d="M631,-581L1667,-316L2066,-480Z" fill="#9fd08e" stroke="#9fd08e" stroke-width="1.51"/><path d="M2090,-187L2235,16L2411,-391Z" fill="#7ca86d" stroke="#7ca86d" stroke-width="1.51"/><path d="M1975,1519L1467,1595L2443,1551Z" fill="#0a6837" stroke="#0a6837" stroke-width="1.51"/><path d="M2235,16L1921,284L2508,311Z" fill="#639f61" stroke="#639f61" stroke-width="1.51"/><path d="M1921,284L2079,700L2508,311Z" fill="#4f995b" stroke="#4f995b" stroke-width="1.51"/><path d="M2079,700L2325,774L2508,311Z" fill="#3e8c52" stroke="#3e8c52" stroke-width="1.51"/><path d="M2411,-391L2235,16L2508,311Z" fill="#709e65" stroke="#709e65" stroke-width="1.51"/><path d="M2325,774L2375,1194L2508,311Z" fill="#2c8048" stroke="#2c8048" stroke-width="1.51"/><path d="M2375,1194L2443,1551L2508,311Z" fill="#19713d" stroke="#19713d" stroke-width="1.51"/><path d="M2325,774L2024,1072L2375,1194Z" fill="#1b7a41" stroke="#1b7a41" stroke-width="1.51"/><path d="M2375,1194L1975,1519L2443,1551Z" fill="#016435" stroke="#016435" stroke-width="1.51"/><path d="M2066,-480L2090,-187L2411,-391Z" fill="#85af74" stroke="#85af74" stroke-width="1.51"/><path d="M2024,1072L1975,1519L2375,1194Z" fill="#0e713b" stroke="#0e713b" stroke-width="1.51"/><path d="M2079,700L2024,1072L2325,774Z" fill="#25894a" stroke="#25894a" stroke-width="1.51"/><path d="M2090,-187L1921,284L2235,16Z" fill="#73aa68" stroke="#73aa68" stroke-width="1.51"/><path d="M1708,1273L1975,1519L2024,1072Z" fill="#17783e" stroke="#17783e" stroke-width="1.51"/><path d="M1921,284L1606,355L2079,700Z" fill="#56a45f" stroke="#56a45f" stroke-width="1.51"/><path d="M1435,649L2024,1072L2079,700Z" fill="#339650" stroke="#339650" stroke-width="1.51"/><path d="M1607,-126L1921,284L2090,-187Z" fill="#7cb46e" stroke="#7cb46e" stroke-width="1.51"/><path d="M2066,-480L1667,-316L2090,-187Z" fill="#8cb878" stroke="#8cb878" stroke-width="1.51"/><path d="M1667,-316L1607,-126L2090,-187Z" fill="#8abb76" stroke="#8abb76" stroke-width="1.51"/><path d="M1606,355L1435,649L2079,700Z" fill="#4fa65e" stroke="#4fa65e" stroke-width="1.51"/><path d="M1435,649L1708,1273L2024,1072Z" fill="#2c8f4a" stroke="#2c8f4a" stroke-width="1.51"/><path d="M1607,-126L1606,355L1921,284Z" fill="#74b46b" stroke="#74b46b" stroke-width="1.51"/><path d="M1708,1273L1467,1595L1975,1519Z" fill="#16763e" stroke="#16763e" stroke-width="1.51"/><path d="M1297,441L1606,355L1607,-126Z" fill="#76bd71" stroke="#76bd71" stroke-width="1.51"/><path d="M1435,649L1107,1109L1708,1273Z" fill="#379d53" stroke="#379d53" stroke-width="1.51"/><path d="M1116,1444L1467,1595L1708,1273Z" fill="#238547" stroke="#238547" stroke-width="1.51"/><path d="M1107,1109L1116,1444L1708,1273Z" fill="#31924f" stroke="#31924f" stroke-width="1.51"/><path d="M1066,-168L1297,441L1607,-126Z" fill="#8ccb7d" stroke="#8ccb7d" stroke-width="1.51"/><path d="M1129,-324L1607,-126L1667,-316Z" fill="#98cc82" stroke="#98cc82" stroke-width="1.51"/><path d="M1078,777L1107,1109L1435,649Z" fill="#4daf62" stroke="#4daf62" stroke-width="1.51"/><path d="M1116,1444L741,1551L1467,1595Z" fill="#388b50" stroke="#388b50" stroke-width="1.51"/><path d="M1297,441L1435,649L1606,355Z" fill="#61b66a" stroke="#61b66a" stroke-width="1.51"/><path d="M1129,-324L1066,-168L1607,-126Z" fill="#9fd488" stroke="#9fd488" stroke-width="1.51"/><path d="M1066,-168L884,200L1297,441Z" fill="#92d082" stroke="#92d082" stroke-width="1.51"/><path d="M1297,441L1078,777L1435,649Z" fill="#5db86a" stroke="#5db86a" stroke-width="1.51"/><path d="M884,200L1078,777L1297,441Z" fill="#76c477" stroke="#76c477" stroke-width="1.51"/><path d="M884,200L774,713L1078,777Z" fill="#7ac779" stroke="#7ac779" stroke-width="1.51"/><path d="M1078,777L709,1083L1107,1109Z" fill="#56ae64" stroke="#56ae64" stroke-width="1.51"/><path d="M1107,1109L709,1083L1116,1444Z" fill="#4ca05b" stroke="#4ca05b" stroke-width="1.51"/><path d="M709,1083L741,1551L1116,1444Z" fill="#4f9c5b" stroke="#4f9c5b" stroke-width="1.51"/><path d="M631,-581L1066,-168L1129,-324Z" fill="#bae299" stroke="#bae299" stroke-width="1.51"/><path d="M631,-581L636,-93L1066,-168Z" fill="#c1e59a" stroke="#c1e59a" stroke-width="1.51"/><path d="M774,713L709,1083L1078,777Z" fill="#65ba6d" stroke="#65ba6d" stroke-width="1.51"/><path d="M636,-93L884,200L1066,-168Z" fill="#addd8f" stroke="#addd8f" stroke-width="1.51"/><path d="M273,1396L-190,1624L741,1551Z" fill="#6fa265" stroke="#6fa265" stroke-width="1.51"/><path d="M709,1083L498,1250L741,1551Z" fill="#60a562" stroke="#60a562" stroke-width="1.51"/><path d="M237,248L465,617L884,200Z" fill="#a5d98b" stroke="#a5d98b" stroke-width="1.51"/><path d="M331,59L237,248L884,200Z" fill="#b7e292" stroke="#b7e292" stroke-width="1.51"/><path d="M636,-93L331,59L884,200Z" fill="#b7e293" stroke="#b7e293" stroke-width="1.51"/><path d="M465,617L774,713L884,200Z" fill="#8ccf80" stroke="#8ccf80" stroke-width="1.51"/><path d="M631,-581L359,-544L636,-93Z" fill="#d4eda7" stroke="#d4eda7" stroke-width="1.51"/><path d="M465,617L709,1083L774,713Z" fill="#77c374" stroke="#77c374" stroke-width="1.51"/><path d="M465,617L498,1250L709,1083Z" fill="#74ba6e" stroke="#74ba6e" stroke-width="1.51"/><path d="M498,1250L273,1396L741,1551Z" fill="#66a563" stroke="#66a563" stroke-width="1.51"/><path d="M465,617L54,700L498,1250Z" fill="#86c97a" stroke="#86c97a" stroke-width="1.51"/><path d="M359,-544L331,59L636,-93Z" fill="#d0eca0" stroke="#d0eca0" stroke-width="1.51"/><path d="M65,-421L19,-26L331,59Z" fill="#def2a6" stroke="#def2a6" stroke-width="1.51"/><path d="M-294,-570L65,-421L359,-544Z" fill="#eff9bc" stroke="#eff9bc" stroke-width="1.51"/><path d="M65,-421L331,59L359,-544Z" fill="#e0f3a9" stroke="#e0f3a9" stroke-width="1.51"/><path d="M-10,1194L273,1396L498,1250Z" fill="#79b06c" stroke="#79b06c" stroke-width="1.51"/><path d="M54,700L-10,1194L498,1250Z" fill="#87bf75" stroke="#87bf75" stroke-width="1.51"/><path d="M237,248L54,700L465,617Z" fill="#a6da8c" stroke="#a6da8c" stroke-width="1.51"/><path d="M19,-26L237,248L331,59Z" fill="#ccea9c" stroke="#ccea9c" stroke-width="1.51"/><path d="M-184,338L54,700L237,248Z" fill="#b8e295" stroke="#b8e295" stroke-width="1.51"/><path d="M-10,1194L-190,1624L273,1396Z" fill="#7eae6e" stroke="#7eae6e" stroke-width="1.51"/><path d="M19,-26L-184,338L237,248Z" fill="#ccea9e" stroke="#ccea9e" stroke-width="1.51"/><path d="M-294,-570L-544,-69L19,-26Z" fill="#f1f9b6" stroke="#f1f9b6" stroke-width="1.51"/><path d="M-184,338L-421,714L54,700Z" fill="#b4de95" stroke="#b4de95" stroke-width="1.51"/><path d="M-390,1083L-10,1194L54,700Z" fill="#95c77f" stroke="#95c77f" stroke-width="1.51"/><path d="M-421,714L-390,1083L54,700Z" fill="#a2d48b" stroke="#a2d48b" stroke-width="1.51"/><path d="M-294,-570L19,-26L65,-421Z" fill="#f0f9b3" stroke="#f0f9b3" stroke-width="1.51"/><path d="M-390,1083L-190,1624L-10,1194Z" fill="#8bb777" stroke="#8bb777" stroke-width="1.51"/><path d="M-544,-69L-184,338L19,-26Z" fill="#def2a9" stroke="#def2a9" stroke-width="1.51"/><path d="M-390,1083L-540,1578L-190,1624Z" fill="#88b17c" stroke="#88b17c" stroke-width="1.51"/><path d="M-509,414L-421,714L-184,338Z" fill="#bfe4a2" stroke="#bfe4a2" stroke-width="1.51"/><path d="M-544,-69L-509,414L-184,338Z" fill="#d5eead" stroke="#d5eead" stroke-width="1.51"/><path d="M-421,714L-540,1578L-390,1083Z" fill="#96c187" stroke="#96c187" stroke-width="1.51"/><path d="M-509,414L-540,1578L-421,714Z" fill="#a1d195" stroke="#a1d195" stroke-width="1.51"/><path d="M-544,-69L-540,1578L-509,414Z" fill="#b4dea3" stroke="#b4dea3" stroke-width="1.51"/></svg>